<?xml version="1.0" encoding="UTF-8"?>
<svg id="Capa_2" data-name="Capa 2" xmlns="http://www.w3.org/2000/svg" xmlns:xlink="http://www.w3.org/1999/xlink" viewBox="0 0 1890.13 1890.13">
  <defs>
    <style>
      .cls-1 {
        fill: none;
      }

      .cls-2 {
        fill: #901601;
      }

      .cls-3 {
        clip-path: url(#clippath);
      }
    </style>
    <clipPath id="clippath">
      <rect class="cls-1" y="0" width="1890.13" height="1890.13"/>
    </clipPath>
  </defs>
  <g id="Nav">
    <g class="cls-3">
      <g>
        <path class="cls-2" d="M1041.84,1015.32c-17.32,21.11-15.34,46.54-28.62,68.46-5.73,11.06-19.36,23.43-12.36,36.49,34.62,1.21,58.73-64.68,83.43-90.07,17.26-32.36,57.66-47.3,74.76-79.31,37.98-60.85,95.44-106.43,130.05-168.76,45.3-35.61,85.45-75.93,114.49-125.89,42.95-44.45,96.64-76.81,140.49-122.36,25.03-26,185.31-176.98,103.62-123.48-73.33,60.31-154.17,108.68-233.24,163.33-66.78,37.71-97.89,116.51-163.86,150.3-31.74,17.87-43.98,53.81-63.3,82.48-18.54,28.63-92.99,98.9-110.25,93.34,30.14-45.39,84.54-80.93,99.05-133.9,1.42-44.91,80.37-117.19,112.32-151.97,36.56-32.03,72.3-62.79,98.59-103.67,10.47-15.21,69.88-62.14,22.44-46.02-78.42,40.18-129.66,111.74-190.47,172.24-91.45,52.57-131.93,148.73-200.82,223.87-80.29,72.9-108.03,180.15-182.34,257.66-67.79,47.09-94.48,124.02-143.09,187.32-8.48,24.82-121.27,114.53-98.16,118.83,98.19-61.35,166.74-159.49,264.11-225.35,70.09-53.33,96.52-149.16,183.17-183.56Z"/>
        <path class="cls-2" d="M221.37,1332.97c85.14-67.32,98.76-147.83,153.99-197.48,28.52-36.33,70.71-59.37,110.26-82.18,33.92-12.36,34.3-72.98,71.47-73.34-9.23,97.92-134.26,125.74-158.08,212.14,9.57,35.19-49.88,111.26-30.84,126.86,26.9-19.58,39.06-52.11,62.73-75.24,35.2-36.4,81.97-61.06,108.56-105.82,26.46-27.62,75.26-36.48,70.45-83.21,3.21-35.03,33.48-66.77,30.32-99.39-11.04-23.09-18.44-51.67,2.83-71.98,24.6-33.12,91.09-54.24,97.84-90.96-63.51-27.16-92.21,64.54-154.53,61.15-17.76,5.74-29.94,17.2-37.21,32.79-14.51,33.9-51.53,52.56-80.13,74.06-52.52,43.42-79.96,107.72-141.89,140.58-40.68,27.92-18.81,87.03-48.23,115.04-30.74-7.5-59.85,13.17-70.57,40.86-16.11,34.55-99.64,114.5-125.13,147.74-36.25,49.79,94.06-36.77,138.16-71.64Z"/>
        <path class="cls-2" d="M284.67,959.06c9-59.35,50.68-95.59,97.87-127.53,73.01-68.44,140.94-142.28,214.92-209.41,41.84-35.6,101.79-28.47,149.21-51.89,54.42-25.93,98.33-85.05,164.42-54.28-3.12,12.41-31.15,19.84-37.7,35.18-11.64,14.46-20.53,38.32-42.47,37.89-51.91-4.64-74.93,46.72-102.84,80.23-4.74,21.43,29.76-16.02,39.68-18.13,20.27-10.2,46-4.52,64.87-18.62,18.37-7.56,104.63-101.33,76.39-46.88-37.01,59.16-114.8,103.12-118.09,186.46-16.24,53.15-89.66,70.45-104.82,128.34,21.52-2.93,54.97-47.02,74.41-65.58,124.3-89.44,68.47-93.6,150.07-187.51,52.73-27.39,70.15-83.63,114.45-119.11,27.26-18.48,45.36-45.39,64.38-71.18,5.57-19.88,67.76-42.65,43.6-58.68-268.38,137.58-204.69-19.6-380.01,100.97-58.31,47.52-124.26,80.13-196.34,101.54-88.54,60.93-143.41,165.89-240.92,219.46-106.61,64.21-50.67,92.09-84.94,158.35-24.61,25.64-49,51.33-64.31,83.86-12.53,23.57-46.71,95.6-38.01,74.29-20.52,50.27,72.59-69.78,113.92-95.98,40.2-13.13,50.76-43.59,69.87-77.9,31.15-48.72,73.89-92.06,114.72-129.6-56.69,3.15-99.36,104.71-142.33,125.72Z"/>
        <path class="cls-2" d="M1344.49,1413.31c-9.97,42.76-38.13,87.25-58.5,117.58,35.3,5.37,72.54-68.75,96.2-96.01,24.6-55.22,74.93-89.09,110.55-135.11,23.76-27.74,39.42-60.67,59.7-90.93,37.48-25.28,79.25-53.7,109.24-89.87,14.06-19.66,20.83-43.24,35.54-62.49,3.13-14.42,100.49-84.9,72.88-80.17-92.95,15.9-102.87,99.82-141.88,126.45-36.7,16.89-75.97,65.46-107.84,71.24,7.52-31.95,45.55-43.31,56.98-74.44,16.06-32.87-14.56-19.9-26.4-2.77-23.23,7.84-45.11,16.74-63.31,34.57-23.43,23.47-30.23,57.32-51.18,82.41-14.8,21.07-41.66,36.64-45.43,62.52-18.8,83.86-77.51,62.96-131.71,101.95-48.58,34.21-64.31,99.33-118,130.38-42.23,43.77-182.65,81.47-236.75,97.58-70.82,32.74-104.09,103.47-101.11,97.85-35.06,66.05,52.18-94.58,320.08-122.95,51.08-5.41,87.15-55.06,127.32-87.77,29.13-24.64,62.84-75.09,93.61-80Z"/>
        <path class="cls-2" d="M1683.06,579.61c-35.57,39.38-39.29,90.25-57.26,137.16-28.2,57.2-91.79,88.62-118.35,145.32-4.54,30.28-85.68,214.87-20.47,104.73,40.97-36,68.1-78,94.46-125.31,23.64-29.58,57.17-52.57,77.55-84.62,36.55-80.1,146.34-280.25,226.53-316.86,37.51-17.12-122.4,36.25-2.64-106.77-22.1-8.44-60.35,30.99-74.4,51.22-5.6,30.21-38.74,40.44-57.54,62.09-24.81,19.23-46.3,44.38-70.59,62.92-26.84,18.77-61.66,23.22-86.99,44.29-28.62,21.05-47.2,50.15-71.81,74.91-33.36,28.99-81.79,42.17-105.33,81.58-2.63,18.23,42.39-25.71,62.8-15.27,43.71-3.82,72.77-40.35,112.83-54.9,37.56-8.9,60.48-46.27,91.19-60.51Z"/>
        <path class="cls-2" d="M1590.07,680.6c-57.11,14.3-98.84,59.71-160.06,60.63-62.61,31.62-79.71,101.31-138.05,137.89-35.88,33.71-70.37,66.44-99.37,105.84-32.75,21.79-67.59,43.39-82.36,82.04-27.78,35.29-79.46,57.48-88.46,106.91,10.44,15.06,31.38-24.32,44.34-29.58,55.51-31.91,85.03-90.04,137.67-124.95,53.63,1.15,66.5-60.25,110.35-81.02,34.14-9.06,54.63-26.39,67.13-59.1,18.81-26.02,46.9-44.05,71.53-64.54,24.29-17.54,32.22-48.37,63.02-57.81,20.57-3.35,107.76-69.35,74.24-76.32Z"/>
        <path class="cls-2" d="M582.04,770.57c15.76-40.62,48.89-66.92,68.75-106.15,5.56-13.94,87.3-68.07,64.01-67.28-34.47,23.43-75.85,31.68-108.6,57.96-25.81,44.11-79.95,61.55-105.78,105.86-13.5,26.38-38.8,61.98-44.89,83.97,12.48,20.72-28.08,35.84-38.61,52.09-44.64,54.52-77.23,119.73-110.84,181.21,20.96,2.68,45.33-59.27,62.81-77.19,35.3-52.3,93.1-82.28,143.18-114.21,52.01-89.65,155.17-121.96,231.07-185.25-4.77-16.83-35.36,7.36-47.23,9.97-47.99-1.01-78.68,30.83-113.87,59.01Z"/>
        <path class="cls-2" d="M739.28,976.3c-21.77,59.91,37.5-42.13,83.66-47.52,26.93-19.13,28.95-56.76,66.54-68.43,9.62-4.95,24.68-7.79,27.3-19.81,15.36-49.84,44.02-108.47,87.64-138.47,41.5-12.77,52.34-48.59,60.67-85.71,22.82-37.7,66.95-67.95,94.23-95.64-38.25,10.9-64.5,52.11-92.63,79.02-26.18,31.96-66.13,48.87-98.41,74.11-40.92,26.5-46.69,78.55-84.61,107.52-28.84,27.14-67.54,43.57-95.26,71.98-10.42,20.71-10.59,43.56-36.82,54.82-23.05,4.77-117.59,105.37-94.59,113.97,29.52-2.49,62.23-53.04,82.29-45.86Z"/>
        <path class="cls-2" d="M1431.13,1107.25c2.53,19.5-19.76,38.65-19.96,55.76,21.38-3.83,30.25-31.54,44.77-45.84,13.92-16.25,31.6-30.81,40.23-50.13,22.34-39.14,73.93-56.09,102.81-91.66,32.73-55.45,89.72-91.68,123.29-146.64,10.03-19.99-6.81-6.59-31.79,16.77-27.48,28.25-72.67,36-99.87,66.48-35.41,47.29-71.13,91.37-123.7,122.91-25.85,37.88-70.03,51.19-109.68,71.65-49.34,41.43-79.56,96.97-121.58,144.63-14.56,49.63,80.73-65.35,91.96-74.77,14.85-16.61,42.91-20.44,56.24-37.62,9.41-15.99,28.99-25.59,47.29-31.54Z"/>
        <path class="cls-2" d="M1424.7,967c-10.07-33.23,23.74-60.18,31.12-91.39.28-10.01,21.15-17.28,10.35-26.12-38.25,27.45-62.84,69.81-87.72,109.6-19.92,32.83-69.17,33.63-90.56,66.92-24.88,38.16-80.18,42.37-106.35,78.67-24.84,44.31-29.53,98.78-72.47,134.17-5.85,10.63-69.52,76.08-35.66,55.52,57.09-66.38,144.93-90.05,192.4-164.82,16.76-25.01,50.81-16,69.88-34.9,31.03-40.75,71.92-79.22,89.01-127.66Z"/>
        <path class="cls-2" d="M776.87,1149.63c-10.8-34.73,25.47-62.9,33.38-95.52.3-10.46,22.69-18.06,11.1-27.3-41.02,28.69-67.4,72.96-94.09,114.55-21.36,34.32-74.19,35.14-97.13,69.94-26.68,39.88-85.99,44.28-114.07,82.22-26.64,46.31-31.67,103.24-77.73,140.23-6.28,11.11-74.56,79.52-38.25,58.03,61.24-69.38,155.45-94.12,206.36-172.27,17.97-26.14,54.49-16.73,74.95-36.47,33.28-42.59,77.14-82.8,95.47-133.43Z"/>
        <path class="cls-2" d="M980.51,1297.11c28.12-13.55,42.93-39.19,61.12-62.01,13.85-10.69,118.17-111.18,63.37-98.51-14.48,28.29-35.82,40.72-65.2,49.5-29,16.33-51.58,58.52-85.47,59.64-12.41-31.07,71.74-123.88,4.06-113.46-18.79,25.18-27.44,59.31-56.02,75.86-19.83,10.78-34.63,25.56-45.34,43.71-31.96,44.8-59.35,90.9-87.91,138.06,19.3,9.83,49.6-35.1,72.12-44.2,33.74-19.89,135.41-46.85,139.28-48.59Z"/>
        <path class="cls-2" d="M332.58,594.07c-73.77,72.74-8.25,20.78,120.29-22.58,51.85-17.49,109.3-23.55,147.5-65.44,30.98-30.9,44.87-71.23,82.09-97,8.53-14.08,80.44-50.21,61.17-61.32-35.69,3.03-53.37,41.16-87.43,43-75.91-5.19-147.83,43.29-198,96.04-2.52,4.47,4.75,6.87,7.27,3.34,35.61-27.28,103.03-34.69,141.61-57.24-25.84,25.56-64.11,58.6-100.84,73.2-62.05,14.98-122.05,30.2-173.67,87.99Z"/>
        <path class="cls-2" d="M896.73,1743.6c2.65,25.59-45.23,57.86-72.59,76.94-51.88,36.16,192.81-78.39,210.45-121.65,8.36-20.49,171.82-114.43,78.8-96.49-83.35,43.6-89.56,21.25-148.7,95.05-23.8,15.74-79.4,13.26-67.95,46.15Z"/>
        <path class="cls-2" d="M1170.23,473c11.71-24.57,56.24-48.58,80.54-62.06,34.55-16.3,30.58-65.01,61.03-88.34,128.68-97.64,76.26-134.7,174.12-224.17,72.86-67.19-158.6,82.81-176.24,101.09-74.85,64.46-19.51,112.74-123.09,164.98-26.38,25.62-25.64,65.35-49.89,93.23-22.68,32.1-52.09,58.43-73.15,92.04,10.73,15.68,88.9-65.88,106.69-76.77Z"/>
        <path class="cls-2" d="M81.92,1789.73c-3.14-13.33,24.38-24.91,35.35-32.38,15.77-9.37,11-30.45,24.37-42.63,56.57-51.08,29.04-63.92,71.17-109.43,31.33-34.14-71.92,46.51-79.39,55.66-32.46,33.07-2.85,50.64-49.93,80.21-11.27,12.92-8.59,30.28-18.7,44.06-9.1,15.52-21.8,28.96-30.02,45.04,6.11,6.18,39.18-34.6,47.15-40.52Z"/>
        <path class="cls-2" d="M284.05,1577.7c-4.12-24.55,16.56-37.73,33.77-49.19,107.55-69.88-13.92-42.13,72.21-170.9,28.36-25.38,65.35-42.19,89.5-74.82,51.34-64.29-18.8-11.92-40.09,4.84-72.2,46.94-146.03,118.64-154.79,212.29.71,24.81-84.9,85.71-47.05,99.26,16.44-1.78,40.46-1.34,46.45-21.49Z"/>
        <path class="cls-2" d="M218.71,903.75c-44.18,13.28-83.83,25.66-125.43,50.96-28.25,8.29-47.84,9.29-61.01,17.49-34.39,21.42-186.75,114.29-147.73,110.31,22.02-2.24,122.31-37.06,161.56-63.13,17.43-11.58,16.92,15.72,39.79,7.44,27.09-4.97,34.27-27.58,54.95-41.91,17.55-13.45,135.26-66.41,77.87-81.15Z"/>
        <path class="cls-2" d="M2108.84,903.75c-44.18,13.28-83.83,25.66-125.43,50.96-28.25,8.29-47.84,9.29-61.01,17.49-34.39,21.42-186.75,114.29-147.73,110.31,22.02-2.24,122.31-37.06,161.56-63.13,17.43-11.58,16.92,15.72,39.79,7.44,27.09-4.97,34.27-27.58,54.95-41.91,17.55-13.45,135.26-66.41,77.87-81.15Z"/>
        <path class="cls-2" d="M992.32,775.82c-14.29,21.55-29.12,45.18,8.51,17.05,40.56-26.56,72.2-65.13,99.22-104.66,18.23-28.33,33.63-48.56,67.18-48.28,53.44-69.95,124.35-125.88,168.96-202.45,4.65-18.06,87.31-73.27,70.06-76.35-39.15,22.43-73.42,52.58-113.1,74.76-38.01,29.86-51.73,79.32-89.55,110.17-70.54,47.44-85.23,62.26-127.52,135.87-28.28,28.13-70.86,56.85-83.74,93.89Z"/>
        <path class="cls-2" d="M278.27,1056.99c-64.18,49.71-98.58,126.89-179.06,155.99-46.91,23.36-42.12,69.9-62.47,109.05-13.25,28.12-44.99,50.45-50.69,80.77-1.31,42.1,35.28-13.69,53.83-20.24,14.11-15.33,46.29-7.2,52.83-27.95,36.67-113.01,163.42-176.01,185.56-297.61Z"/>
        <path class="cls-2" d="M1703.07-151.35c-80.46,49.78-129.19,134.45-226.4,158.76-57.37,21.5-56.94,75.44-85.05,118.06-18.6,30.77-58.14,52.8-68.15,86.95-6.2,48.16,42.71-11.72,65.1-17.15,18.17-16,54.85-3.03,64.79-26.1,55.37-125.53,210.37-183.49,249.72-320.52Z"/>
        <path class="cls-2" d="M1703.07,1738.78c-80.46,49.78-129.19,134.45-226.4,158.76-57.37,21.5-56.94,75.44-85.05,118.06-18.6,30.77-58.14,52.8-68.15,86.95-6.2,48.16,42.71-11.72,65.1-17.15,18.17-16,54.85-3.03,64.79-26.1,55.37-125.53,210.37-183.49,249.72-320.52Z"/>
        <path class="cls-2" d="M552,374.74c10.27,35.52,58.48-45.71,76.26-55.01,26.39-12.13,58.12-20.93,71.09-49.95,14.45-31.13,55.73-47.75,68.53-76.81-44.5,2.07-73.57,53.2-109.21,76.39-47.45,22.3-91.81,50.73-106.67,105.39Z"/>
        <path class="cls-2" d="M881.97,402.91c10.27,35.52,58.48-45.71,76.26-55.01,26.39-12.13,58.12-20.93,71.09-49.95,14.45-31.13,55.73-47.75,68.53-76.81-44.5,2.07-73.57,53.2-109.21,76.39-47.45,22.3-91.81,50.73-106.67,105.39Z"/>
        <path class="cls-2" d="M877.69,1553.69c-42.42,96.54,93.01-81.21,121.7-98.26,42.73-22.54,94.64-40.01,113.56-89.4,21.19-53.02,88.25-84.36,106.88-133.78-73.72,7.46-117.38,95.01-174.49,136.75-76.8,41.32-147.91,92.56-167.64,184.69Z"/>
        <path class="cls-2" d="M642.9,142.03c10.27,35.52,58.48-45.71,76.26-55.01,26.39-12.13,58.12-20.93,71.09-49.95,14.45-31.13,55.73-47.75,68.53-76.81-44.5,2.07-73.57,53.2-109.21,76.39-47.45,22.3-91.81,50.73-106.67,105.39Z"/>
        <path class="cls-2" d="M355.72,1297.92c-19.58-44.79-68.77,70-90.47,85.25-32.49,20.45-72.57,37.45-84.56,77.73-13.58,43.3-64.82,72.2-76.58,112.49,57.97-10.38,87.25-82.41,129.97-118.95,58.35-37.4,111.59-82.32,121.64-156.52Z"/>
        <path class="cls-2" d="M-204,927.25c12.95,47.75,93.14-53,121.1-63.08,41.36-12.79,90.65-20.56,112.78-57.07,24.57-39.09,89.09-56,110.96-92.56-68.31-2.54-116.83,61.03-173.24,87.21-74.42,23.62-144.58,55.64-171.6,125.5Z"/>
        <path class="cls-2" d="M989.24,816.99c-44.26,20.71-66.85,70.05-104.7,97.52-10.98.7-113.23,99.93-92.52,99.66,68.75-72.94,44.57-8.31,78.49-24.38,26.59-47.05,64.97-83.06,86.44-131.53,3.07-15.24,38.19-31.82,32.28-41.27Z"/>
        <path class="cls-2" d="M1276.92,1541.41c-67.59,27.53-105.02,99.41-163.57,137.51-16.43.21-176.48,140.46-145.57,141.62,108.08-103.57,15.54,19.87,61.44-12.3,63.71-44.67,160.69-137.05,196.41-207.72,5.74-22.49,59.38-44.55,51.29-59.11Z"/>
        <path class="cls-2" d="M1128.38,501.87c-.07-.65.54-1.98-.5-1.89-.99.77.85,1.89.5,1.89Z"/>
        <path class="cls-2" d="M126.77,900.22c5.87,12.65,21.52-12.56,30.94-14.57,35.43-13.94,51.47-53.96,85.7-65.82,68.18-32.58,126.35-97.6,176.69-154.87,6.31-16.47,61.03-42.49,42.27-55.4-62.86,18.29-105.56,63.25-151.92,104.71-75.16,46.55-140.57,109.02-183.67,185.95Z"/>
        <path class="cls-2" d="M103.89,126.07c-17.32,21.11-15.34,46.54-28.62,68.46-5.73,11.06-19.36,23.43-12.36,36.49,34.62,1.21,58.73-64.68,83.43-90.07,17.26-32.36,57.66-47.3,74.76-79.31C259.09.78,316.55-44.8,351.16-107.12c45.3-35.61,85.45-75.93,114.49-125.89,42.95-44.45,104.59-70.31,140.49-122.36,7.89-24.03,185.31-176.98,103.62-123.48-73.33,60.31-154.17,108.68-233.24,163.33-66.78,37.71-97.89,116.51-163.86,150.3-31.74,17.87-43.98,53.81-63.3,82.48-18.54,28.63-92.99,98.9-110.25,93.34,30.14-45.39,84.54-80.93,99.05-133.9,1.42-44.91,80.37-117.19,112.32-151.97,36.56-32.03,72.3-62.79,98.59-103.67,10.47-15.21,69.88-62.14,22.44-46.02-78.42,40.18-129.66,111.74-190.47,172.24C189.58-200.14,149.09-103.98,80.21-28.84-.08,44.06-27.82,151.31-102.13,228.82c-67.79,47.09-94.48,124.02-143.09,187.32-8.48,24.82-121.27,114.53-98.16,118.83,98.19-61.35,166.74-159.49,264.11-225.35C-9.19,256.29,17.25,160.46,103.89,126.07Z"/>
        <path class="cls-2" d="M249.19,589.06c-9.56,38.7-36.56,78.98-56.11,106.43,33.85,4.86,69.57-62.23,92.25-86.9,23.59-49.98,71.86-80.63,106.02-122.29,22.78-25.11,37.81-54.91,57.26-82.3,35.95-22.88,76-48.6,104.76-81.35,13.48-17.8,19.98-39.14,34.09-56.56,3-13.05,64.66-53.62,37.89-51.52-48.4,14.56-66.65,69.31-104.07,93.41-35.2,15.29-72.86,59.25-103.42,64.48,7.21-28.92,43.68-39.2,54.64-67.37,15.4-29.76-13.97-18.01-25.31-2.51-22.28,7.1-43.27,15.15-60.71,31.29-22.47,21.24-28.99,51.88-49.09,74.59-14.2,19.07-39.96,33.17-43.57,56.58-18.03,75.91-74.33,56.98-126.31,92.28-46.58,30.96-61.68,89.9-113.17,118.01-40.5,39.62-99.8,43.37-151.68,57.95-67.91,29.63-155.65,43.94-206.4,98.16,101.01-49.93,226.29-72.88,341.03-90.52,42.84-22.95,83.58-49.83,122.1-79.45,27.94-22.3,60.26-67.97,89.77-72.41Z"/>
        <path class="cls-2" d="M745.12-309.65c-35.57,39.38-39.29,90.25-57.26,137.16-28.2,57.2-91.79,88.62-118.35,145.32-4.54,30.28-85.68,214.87-20.47,104.73,40.97-36,68.1-78,94.46-125.31,23.64-29.58,57.17-52.57,77.55-84.62,36.55-80.1,86.49-151.58,135.67-224.73,57.7-91.73-31.54-55.88,88.22-198.89-22.1-8.44-60.35,30.99-74.4,51.22-5.6,30.21-38.74,40.44-57.54,62.09-24.81,19.23-46.3,44.38-70.59,62.92-26.84,18.77-61.66,23.22-86.99,44.29-28.62,21.05-47.2,50.15-71.81,74.91-33.36,28.99-81.79,42.17-105.33,81.58-2.63,18.23,42.39-25.71,62.8-15.27,43.71-3.82,72.77-40.35,112.83-54.9,37.56-8.9,60.48-46.27,91.19-60.51Z"/>
        <path class="cls-2" d="M652.12-208.65c-57.11,14.3-98.84,59.71-160.06,60.63-62.61,31.62-79.71,101.31-138.05,137.89-35.88,33.71-70.37,66.44-99.37,105.84-32.75,21.79-67.59,43.39-82.36,82.04-27.78,35.29-79.46,57.48-88.46,106.91,10.44,15.06,31.38-24.32,44.34-29.58,55.51-31.91,85.03-90.04,137.67-124.95,53.63,1.15,66.5-60.25,110.35-81.02,34.14-9.06,54.63-26.39,67.13-59.1,18.81-26.02,46.9-44.05,71.53-64.54,24.29-17.54,32.22-48.37,63.02-57.81,20.57-3.35,107.76-69.35,74.24-76.32Z"/>
        <path class="cls-2" d="M243.32,369.42c-33.81,18.93-49.67,51.99-83.84,69.02-20.68,8.95-37.21,22.72-51.81,38.32-12.39,12.39-30.34,30.48-49.94,23.72-1.32-15.59,67.97-63.52,45.97-66.68-71.28,35.89-111.79,99.22-155.06,164.47-29.87,45.31-76.64,77.27-110.75,119.19-41.41,38.56,34.6-8.4,50.58-10.32,60.16-23.78,122.54-43.68,175.1-82.53,104.5-188.69,114.36-43.4,179.74-255.2Z"/>
        <path class="cls-2" d="M1432.21,1548.63c15.76-40.62,48.89-66.92,68.75-106.15,5.56-13.94,87.3-68.07,64.01-67.28-34.47,23.43-75.85,31.68-108.6,57.96-25.81,44.11-79.95,61.55-105.78,105.86-13.5,26.38-38.8,61.98-44.89,83.97,12.48,20.72-28.08,35.84-38.61,52.09-44.64,54.52-77.23,119.73-110.84,181.21,20.96,2.68,45.33-59.27,62.81-77.19,35.3-52.3,93.1-82.28,143.18-114.21,52.01-89.65,155.17-121.96,231.07-185.25-4.77-16.83-35.36,7.36-47.23,9.97-47.99-1.01-78.68,30.83-113.87,59.01Z"/>
        <path class="cls-2" d="M777.87,295.32c-21.77,59.91,37.5-42.13,83.66-47.52,26.93-19.13,28.95-56.76,66.54-68.43,9.62-4.95,24.68-7.79,27.3-19.81,15.36-49.84,44.02-108.47,87.64-138.47,41.5-12.77,52.34-48.59,60.67-85.71,22.82-37.7,66.95-67.95,94.23-95.64-38.25,10.9-64.5,52.11-92.63,79.02-26.18,31.96-66.13,48.87-98.41,74.11-40.92,26.5-46.69,78.55-84.61,107.52-28.84,27.14-67.54,43.57-95.26,71.98-10.42,20.71-10.59,43.56-36.82,54.82-23.05,4.77-117.59,105.37-94.59,113.97,29.52-2.49,62.23-53.04,82.29-45.86Z"/>
        <path class="cls-2" d="M516.07,203.02c2.72,22.36-21.23,44.32-21.45,63.94,22.97-4.4,32.5-36.17,48.11-52.56,14.95-18.64,33.95-35.33,43.23-57.48,24.01-44.88,79.44-64.32,110.47-105.11,35.17-63.58,96.4-105.13,132.47-168.15,10.78-22.93,46.37-38.46,51.45-59.8-36.96,11.37-58.77,52.25-85.61,79.03-29.53,32.39-78.09,41.28-107.31,76.23-38.05,54.22-76.43,104.78-132.92,140.94-27.77,43.44-75.25,58.71-117.85,82.16-53.02,47.51-85.49,111.2-130.63,165.85-15.64,56.91,86.75-74.94,98.82-85.74,15.96-19.04,46.11-23.43,60.43-43.14,10.11-18.34,31.15-29.34,50.81-36.17Z"/>
        <path class="cls-2" d="M486.76,77.74c-10.07-33.23,23.74-60.18,31.12-91.39.28-10.01,21.15-17.28,10.35-26.12-38.25,27.45-62.84,69.81-87.72,109.6-19.92,32.83-69.17,33.63-90.56,66.92-24.88,38.16-80.18,42.37-106.35,78.67-24.84,44.31-29.53,98.78-72.47,134.17-5.85,10.63-69.52,76.08-35.66,55.52,57.09-66.38,144.93-90.05,192.4-164.82,16.76-25.01,50.81-16,69.88-34.9,31.03-40.75,71.92-79.22,89.01-127.66Z"/>
        <path class="cls-2" d="M34.62,425.76c10.63-3.05,9.02-2.86,12.89-4.6,28.12-13.55,42.93-39.19,61.12-62.01,13.85-10.69,118.17-111.18,63.37-98.51-14.48,28.29-35.82,40.72-65.2,49.5-29,16.33-51.58,58.52-85.47,59.64-12.41-31.07,71.74-123.88,4.06-113.46-18.79,25.18-27.44,59.31-56.02,75.86-19.83,10.78-34.63,25.56-45.34,43.71-31.96,44.8-59.35,90.9-87.91,138.06,19.3,9.83,49.6-35.1,72.12-44.2,33.74-19.89,107.33-31.09,126.39-44Z"/>
        <path class="cls-2" d="M1514.33,1372.06c26.81-26.8,52.27-34.55,74.38-43.53,31.27-10.51,30.84-49.33,58.95-65.68,118.75-68.36,75.19-101.31,166.44-165.34,67.98-48.13-144,54.55-160.59,67.79-69.55,45.83-24.14,87.87-118.07,122.03-24.7,18.45-26.53,49.94-49.51,70.32-21.86,23.83-49.25,42.63-69.79,67.77,8.41,13.15,81.94-45.98,98.19-53.36Z"/>
        <path class="cls-2" d="M986.08-124.48c-2.75,32.3-34.66,40.89-61.38,48.66-166.37,46.38,4.37,58.05-153.27,186.29-46.2,20.94-56.03,31.22-97.6,64.74-50.55,40.77,4.41,18.55,38.32,5.71,111.7-31.17,204.02-94.45,247.06-208.3,7.38-31.32,141.58-74.84,95.81-106.25-22.45-4.06-54.22-13.77-68.94,9.15Z"/>
        <path class="cls-2" d="M1148.51-16.84c-33.13,40.78-90.45,33.78-114.52,81.44-21.3,25.93-17.59,53.88-26.46,79.58-26.1,37.44-45.65,90.09-40.54,127.33,32.38-10.46,51.37-120.54,79.48-102.95,9.92,16.38,34.81,17.42,51.18-4.71,22.08-22.71,18.73-46.87,29.73-71.83,8.61-22.12,81.97-138.68,21.12-108.85Z"/>
        <path class="cls-2" d="M642.9,2032.16c10.27,35.52,58.48-45.71,76.26-55.01,26.39-12.13,58.12-20.93,71.09-49.95,14.45-31.13,55.73-47.75,68.53-76.81-44.5,2.07-73.57,53.2-109.21,76.39-47.45,22.3-91.81,50.73-106.67,105.39Z"/>
        <path class="cls-2" d="M777.87,2185.46c-21.77,59.91,37.5-42.13,83.66-47.52,26.93-19.13,28.95-56.76,66.54-68.43,9.62-4.95,24.68-7.79,27.3-19.81,15.36-49.84,44.02-108.47,87.64-138.47,41.5-12.77,52.34-48.59,60.67-85.71,22.82-37.7,66.95-67.95,94.23-95.64-38.25,10.9-64.5,52.11-92.63,79.02-26.18,31.96-66.13,48.87-98.41,74.11-40.92,26.5-46.69,78.55-84.61,107.52-28.84,27.14-67.54,43.57-95.26,71.98-10.42,20.71-10.59,43.56-36.82,54.82-23.05,4.77-117.59,105.37-94.59,113.97,29.52-2.49,62.23-53.04,82.29-45.86Z"/>
        <path class="cls-2" d="M1020.99,1751.06c-2.75,32.3-69.57,55.48-96.29,63.25-166.37,46.38,4.37,58.05-153.27,186.29-46.2,20.94-101.01,27.84-144.04,59.45-89.8,60.85,20.99,22.09,54.91,9.25,111.7-31.17,233.87-92.7,276.91-206.55,7.38-31.32,141.58-74.84,95.81-106.25-22.45-4.06-6.26-30.27-34.04-5.44Z"/>
        <path class="cls-2" d="M1148.51,1873.3c-33.13,40.78-90.45,33.78-114.52,81.44-21.3,25.93-17.59,53.88-26.46,79.58-26.1,37.44-45.65,90.09-40.54,127.33,32.38-10.46,51.37-120.54,79.48-102.95,9.92,16.38,34.81,17.42,51.18-4.71,22.08-22.71,18.73-46.87,29.73-71.83,8.61-22.12,81.97-138.68,21.12-108.85Z"/>
        <path class="cls-2" d="M1053.56,1507.6c-12.42,17.49-25.31,36.68,7.39,13.84,35.26-21.56,62.75-52.88,86.24-84.97,15.84-23,29.23-39.42,58.39-39.2,46.45-56.79,108.09-102.2,146.86-164.37,4.05-14.66,75.89-59.49,60.89-61.98-34.03,18.21-63.82,42.68-98.31,60.69-33.04,24.24-44.97,64.39-77.84,89.44-61.31,38.52-74.08,50.55-110.84,110.31-24.58,22.84-61.59,46.16-72.79,76.23Z"/>
        <path class="cls-2" d="M51.29-72.27C7.03-51.56-15.55-2.22-53.4,25.25c-10.98.7-113.23,99.93-92.52,99.66,68.75-72.94,44.57-8.31,78.49-24.38C-40.85,53.49-2.47,17.47,19.01-31c3.07-15.24,38.19-31.82,32.28-41.27Z"/>
        <path class="cls-2" d="M2168.4,1056.99c-64.18,49.71-98.58,126.89-179.06,155.99-46.91,23.36-42.12,69.9-62.47,109.05-13.25,28.12-44.99,50.45-50.69,80.77-1.31,42.1,35.28-13.69,53.83-20.24,14.11-15.33,46.29-7.2,52.83-27.95,36.67-113.01,163.42-176.01,185.56-297.61Z"/>
        <path class="cls-2" d="M1630.67,1001.52c-44.97,77.54,148.6-127.26,176.56-137.34,41.36-12.79,90.65-20.56,112.78-57.07,24.57-39.09,89.09-56,110.96-92.56-68.31-2.54-116.83,61.03-173.24,87.21-74.42,23.62-200.04,129.9-227.06,199.77Z"/>
        <path class="cls-2" d="M1994.02,126.07c-17.32,21.11-15.34,46.54-28.62,68.46-5.73,11.06-19.36,23.43-12.36,36.49,34.62,1.21,58.73-64.68,83.43-90.07,17.26-32.36,57.66-47.3,74.76-79.31,37.98-60.85,95.44-106.43,130.05-168.76,45.3-35.61,85.45-75.93,114.49-125.89,42.95-44.45,104.59-70.31,140.49-122.36,7.89-24.03,185.31-176.98,103.62-123.48-73.33,60.31-154.17,108.68-233.24,163.33-66.78,37.71-97.89,116.51-163.86,150.3-31.74,17.87-43.98,53.81-63.3,82.48-18.54,28.63-92.99,98.9-110.25,93.34,30.14-45.39,84.54-80.93,99.05-133.9,1.42-44.91,80.37-117.19,112.32-151.97,36.56-32.03,72.3-62.79,98.59-103.67,10.47-15.21,69.88-62.14,22.44-46.02-78.42,40.18-129.66,111.74-190.47,172.24-91.45,52.57-131.93,148.73-200.82,223.87-80.29,72.9-108.03,180.15-182.34,257.66-67.79,47.09-94.48,124.02-143.09,187.32-8.48,24.82-121.27,114.53-98.16,118.83,98.19-61.35,166.74-159.49,264.11-225.35,70.09-53.33,96.52-149.16,183.17-183.56Z"/>
        <path class="cls-2" d="M1236.85,69.81c9-59.35,50.68-95.59,97.87-127.53,73.01-68.44,140.94-142.28,214.92-209.41,41.84-35.6,101.79-28.47,149.21-51.89,54.42-25.93,98.33-85.05,164.42-54.28-3.12,12.41-31.15,19.84-37.7,35.18-11.64,14.46-20.53,38.32-42.47,37.89-51.91-4.64-74.93,46.72-102.84,80.23-4.74,21.43,29.76-16.02,39.68-18.13,20.27-10.2,46-4.52,64.87-18.62,18.37-7.56,104.63-101.33,76.39-46.88-37.01,59.16-114.8,103.12-118.09,186.46-16.24,53.15-89.66,70.45-104.82,128.34,21.52-2.93,54.97-47.02,74.41-65.58,124.3-89.44,68.47-93.6,150.07-187.51,52.73-27.39,70.15-83.63,114.45-119.11,27.26-18.48,45.36-45.39,64.38-71.18,5.57-19.88,67.76-42.65,43.6-58.68-268.38,137.58-204.69-19.6-380.01,100.97-58.31,47.52-124.26,80.13-196.34,101.54-88.54,60.93-143.41,165.89-240.92,219.46-106.61,64.21-50.67,92.09-84.94,158.35-24.61,25.64-49,51.33-64.31,83.86-12.53,23.57-35.82,52.5-42.05,74.67,35.33-26.64,76.63-70.16,117.96-96.36,40.2-13.13,50.76-43.59,69.87-77.9,31.15-48.72,73.89-92.06,114.72-129.6-56.69,3.15-99.36,104.71-142.33,125.72Z"/>
        <path class="cls-2" d="M2139.32,589.06c-9.56,38.7-36.56,78.98-56.11,106.43,33.85,4.86,69.57-62.23,92.25-86.9,23.59-49.98,71.86-80.63,106.02-122.29,22.78-25.11,37.81-54.91,57.26-82.3,35.95-22.88,76-48.6,104.76-81.35,13.48-17.8,19.98-39.14,34.09-56.56,3-13.05,64.66-53.62,37.89-51.52-48.4,14.56-66.65,69.31-104.07,93.41-35.2,15.29-72.86,59.25-103.42,64.48,7.21-28.92,43.68-39.2,54.64-67.37,15.4-29.76-13.97-18.01-25.31-2.51-22.28,7.1-43.27,15.15-60.71,31.29-22.47,21.24-28.99,51.88-49.09,74.59-14.2,19.07-39.96,33.17-43.57,56.58-18.03,75.91-74.33,56.98-126.31,92.28-46.58,30.96-61.68,89.9-113.17,118.01-40.5,39.62-99.8,43.37-151.68,57.95-67.91,29.63-120.25,62.01-170.99,116.22,101.01-49.93,190.88-90.95,305.62-108.58,42.84-22.95,83.58-49.83,122.1-79.45,27.94-22.3,60.26-67.97,89.77-72.41Z"/>
        <path class="cls-2" d="M2133.45,369.42c-33.81,18.93-49.67,51.99-83.84,69.02-20.68,8.95-37.21,22.72-51.81,38.32-12.39,12.39-30.34,30.48-49.94,23.72-1.32-15.59,67.97-63.52,45.97-66.68-71.28,35.89-111.79,99.22-155.06,164.47-29.87,45.31-76.64,77.27-110.75,119.19-41.41,38.56,34.6-8.4,50.58-10.32,60.16-23.78,122.54-43.68,175.1-82.53,104.5-188.69,114.36-43.4,179.74-255.2Z"/>
        <path class="cls-2" d="M1534.22-118.69c15.76-40.62,48.89-66.92,68.75-106.15,5.56-13.94,87.3-68.07,64.01-67.28-34.47,23.43-75.85,31.68-108.6,57.96-25.81,44.11-79.95,61.55-105.78,105.86-13.5,26.38-38.8,61.98-44.89,83.97,12.48,20.72-28.08,35.84-38.61,52.09-44.64,54.52-77.23,119.73-110.84,181.21,20.96,2.68,45.33-59.27,62.81-77.19,35.3-52.3,93.1-82.28,143.18-114.21,52.01-89.65,155.17-121.96,231.07-185.25-4.77-16.83-35.36,7.36-47.23,9.97-47.99-1.01-78.68,30.83-113.87,59.01Z"/>
        <path class="cls-2" d="M1691.46,87.04c-21.77,59.91,37.5-42.13,83.66-47.52,26.93-19.13,28.95-56.76,66.54-68.43,9.62-4.95,24.68-7.79,27.3-19.81,15.36-49.84,44.02-108.47,87.64-138.47,41.5-12.77,52.34-48.59,60.67-85.71,22.82-37.7,66.95-67.95,94.23-95.64-38.25,10.9-64.5,52.11-92.63,79.02-26.18,31.96-66.13,48.87-98.41,74.11-40.92,26.5-46.69,78.55-84.61,107.52-28.84,27.14-67.54,43.57-95.26,71.98-10.42,20.71-10.59,43.56-36.82,54.82-23.05,4.77-117.59,105.37-94.59,113.97,29.52-2.49,62.23-53.04,82.29-45.86Z"/>
        <path class="cls-2" d="M1924.75,425.76c-1.87,10.81,9.02-2.86,12.89-4.6,28.12-13.55,42.93-39.19,61.12-62.01,13.85-10.69,118.17-111.18,63.37-98.51-14.48,28.29-35.82,40.72-65.2,49.5-29,16.33-51.58,58.52-85.47,59.64-12.41-31.07,71.74-123.88,4.06-113.46-18.79,25.18-27.44,59.31-56.02,75.86-19.83,10.78-34.63,25.56-45.34,43.71-31.96,44.8-59.35,90.9-87.91,138.06,19.3,9.83,49.6-35.1,72.12-44.2,33.74-19.89,107.33-31.09,126.39-44Z"/>
        <path class="cls-2" d="M1468.01,438.16c8.6,47.21-69.19,65.38-82.73,103.93,67.76-29.3,238.77-115.27,251.65-193.55-15.88-36.84,198.64-220.3,82.17-182.46-98.77,84.83-111.32,43.78-172.71,183.29-27.54,30.31-99.82,28.49-78.38,88.78Z"/>
        <path class="cls-2" d="M1333.45,479.2c-5.63-25.84,17.17-40.22,36.12-52.71,118.51-76.21-17.38-44.19,74.61-182.12,30.97-27.44,72.03-46.03,97.95-81.03,55.34-69.06-21.68-12.17-45.03,6.01-79.56,51.19-159.97,128.58-166.1,227.68,1.79,26.19-92.33,92.43-49.09,105.89,18.48-2.24,45.58-2.32,51.54-23.73Z"/>
        <path class="cls-2" d="M1254.32,145.36c-54.76,37.5-86.53,98.85-153.61,118.75-39.4,16.82-37.72,55.03-56.2,86.01-12.16,22.32-39.13,39.02-45.23,63.5-3.08,34.3,29.45-9.48,44.9-13.95,12.25-11.84,38.13-3.66,44.45-20.29,35.34-90.48,141.8-135.83,165.69-234.03Z"/>
        <path class="cls-2" d="M1459.45,349.98c12.19,34.91,55.91-48.82,73.16-59.07,25.69-13.55,56.9-24.05,68.27-53.74,12.74-31.87,53.06-50.71,64.25-80.43-44.32,4.48-70.57,57.12-104.9,82.21-46.17,24.84-88.92,55.64-100.78,111.03Z"/>
        <path class="cls-2" d="M1941.42-72.27c-44.26,20.71-66.85,70.05-104.7,97.52-10.98.7-113.23,99.93-92.52,99.66,68.75-72.94,44.57-8.31,78.49-24.38,26.59-47.05,64.97-83.06,86.44-131.53,3.07-15.24,38.19-31.82,32.28-41.27Z"/>
        <path class="cls-2" d="M1458.14,1549.11c3.77,14.11,24.47-9.07,34.55-9.43,39.07-7.97,62.86-46.35,100.3-52.39,76.22-21.28,147.99-77.83,210.27-127.8,9.47-15.84,70.63-32.79,53.62-49.51-68.15,7.5-120.33,46.16-175.65,80.54-85.95,34.43-196.1,99.08-223.09,158.59Z"/>
        <path class="cls-2" d="M103.89,2016.2c-17.32,21.11-15.34,46.54-28.62,68.46-5.73,11.06-19.36,23.43-12.36,36.49,34.62,1.21,58.73-64.68,83.43-90.07,17.26-32.36,57.66-47.3,74.76-79.31,37.98-60.85,95.44-106.43,130.05-168.76,45.3-35.61,85.45-75.93,114.49-125.89,42.95-44.45,104.59-70.31,140.49-122.36,7.89-24.03,185.31-176.98,103.62-123.48-73.33,60.31-154.17,108.68-233.24,163.33-66.78,37.71-97.89,116.51-163.86,150.3-31.74,17.87-43.98,53.81-63.3,82.48-18.54,28.63-92.99,98.9-110.25,93.34,30.14-45.39,84.54-80.93,99.05-133.9,1.42-44.91,80.37-117.19,112.32-151.97,36.56-32.03,72.3-62.79,98.59-103.67,10.47-15.21,69.88-62.14,22.44-46.02-78.42,40.18-129.66,111.74-190.47,172.24-91.45,52.57-131.93,148.73-200.82,223.87C-.08,1934.19-27.82,2041.44-102.13,2118.95c-67.79,47.09-94.48,124.02-143.09,187.32-8.48,24.82-121.27,114.53-98.16,118.83,98.19-61.35,166.74-159.49,264.11-225.35,70.09-53.33,96.52-149.16,183.17-183.56Z"/>
        <path class="cls-2" d="M-653.28,1959.94c9-59.35,50.68-95.59,97.87-127.53,73.01-68.44,140.94-142.28,214.92-209.41,41.84-35.6,101.79-28.47,149.21-51.89,54.42-25.93,98.33-85.05,164.42-54.28-3.12,12.41-31.15,19.84-37.7,35.18-11.64,14.46-20.53,38.32-42.47,37.89-51.91-4.64-74.93,46.72-102.84,80.23-4.74,21.43,29.76-16.02,39.68-18.13,20.27-10.2,46-4.52,64.87-18.62,18.37-7.56,104.63-101.33,76.39-46.88-37.01,59.16-114.8,103.12-118.09,186.46-16.24,53.15-89.66,70.45-104.82,128.34,21.52-2.93,54.97-47.02,74.41-65.58,124.3-89.44,68.47-93.6,150.07-187.51,52.73-27.39,70.15-83.63,114.45-119.11,27.26-18.48,45.36-45.39,64.38-71.18,5.57-19.88,67.76-42.65,43.6-58.68-268.38,137.58-204.69-19.6-380.01,100.97-58.31,47.52-124.26,80.13-196.34,101.54-88.54,60.93-143.41,165.89-240.92,219.46-106.61,64.21-50.67,92.09-84.94,158.35-24.61,25.64-49,51.33-64.31,83.86-12.53,23.57-31.78,52.13-38.01,74.29,35.33-26.64,72.59-69.78,113.92-95.98,40.2-13.13,50.76-43.59,69.87-77.9,31.15-48.72,73.89-92.06,114.72-129.6-56.69,3.15-99.36,104.71-142.33,125.72Z"/>
        <path class="cls-2" d="M745.12,1580.48c-35.57,39.38-39.29,90.25-57.26,137.16-28.2,57.2-91.79,88.62-118.35,145.32-4.54,30.28-85.68,214.87-20.47,104.73,40.97-36,68.1-78,94.46-125.31,23.64-29.58,57.17-52.57,77.55-84.62,36.55-80.1,86.49-151.58,135.67-224.73,57.7-91.73-31.54-55.88,88.22-198.89-22.1-8.44-60.35,30.99-74.4,51.22-5.6,30.21-38.74,40.44-57.54,62.09-24.81,19.23-46.3,44.38-70.59,62.92-26.84,18.77-61.66,23.22-86.99,44.29-28.62,21.05-47.2,50.15-71.81,74.91-33.36,28.99-81.79,42.17-105.33,81.58-2.63,18.23,42.39-25.71,62.8-15.27,43.71-3.82,72.77-40.35,112.83-54.9,37.56-8.9,60.48-46.27,91.19-60.51Z"/>
        <path class="cls-2" d="M652.12,1681.48c-57.11,14.3-98.84,59.71-160.06,60.63-62.61,31.62-79.71,101.31-138.05,137.89-35.88,33.71-70.37,66.44-99.37,105.84-32.75,21.79-67.59,43.39-82.36,82.04-27.78,35.29-79.46,57.48-88.46,106.91,10.44,15.06,31.38-24.32,44.34-29.58,55.51-31.91,85.03-90.04,137.67-124.95,53.63,1.15,66.5-60.25,110.35-81.02,34.14-9.06,54.63-26.39,67.13-59.1,18.81-26.02,46.9-44.05,71.53-64.54,24.29-17.54,32.22-48.37,63.02-57.81,20.57-3.35,107.76-69.35,74.24-76.32Z"/>
        <path class="cls-2" d="M-198.67,1977.17c-21.77,59.91,37.5-42.13,83.66-47.52,26.93-19.13,28.95-56.76,66.54-68.43,9.62-4.95,24.68-7.79,27.3-19.81,15.36-49.84,44.02-108.47,87.64-138.47,41.5-12.77,52.34-48.59,60.67-85.71,22.82-37.7,129.45-125.1,126.35-121.29,4.5-5.53-17.52-33.25-124.75,104.67-25.36,32.62-66.13,48.87-98.41,74.11-40.92,26.5-46.69,78.55-84.61,107.52-28.84,27.14-67.54,43.57-95.26,71.98-10.42,20.71-10.59,43.56-36.82,54.82-23.05,4.77-117.59,105.37-94.59,113.97,29.52-2.49,62.23-53.04,82.29-45.86Z"/>
        <path class="cls-2" d="M516.07,2093.15c2.72,22.36-21.23,44.32-21.45,63.94,22.97-4.4,32.5-36.17,48.11-52.56,14.95-18.64,33.95-35.33,43.23-57.48,24.01-44.88,79.44-64.32,110.47-105.11,35.17-63.58,96.4-105.13,132.47-168.15,10.78-22.93,46.37-38.46,51.45-59.8-36.96,11.37-58.77,52.25-85.61,79.03-29.53,32.39-78.09,41.28-107.31,76.23-38.05,54.22-76.43,104.78-132.92,140.94-27.77,43.44-75.25,58.71-117.85,82.16-53.02,47.51-85.49,111.2-130.63,165.85-15.64,56.91,86.75-74.94,98.82-85.74,15.96-19.04,46.11-23.43,60.43-43.14,10.11-18.34,31.15-29.34,50.81-36.17Z"/>
        <path class="cls-2" d="M486.76,1967.87c-10.07-33.23,23.74-60.18,31.12-91.39.28-10.01,21.15-17.28,10.35-26.12-38.25,27.45-62.84,69.81-87.72,109.6-19.92,32.83-69.17,33.63-90.56,66.92-24.88,38.16-80.18,42.37-106.35,78.67-24.84,44.31-29.53,98.78-72.47,134.17-5.85,10.63-69.52,76.08-35.66,55.52,57.09-66.38,144.93-90.05,192.4-164.82,16.76-25.01,50.81-16,69.88-34.9,31.03-40.75,71.92-79.22,89.01-127.66Z"/>
        <path class="cls-2" d="M-231.14,1351.41c32.61-16.93,78.85-16.96,116.34-31.43,38.27-39.11,98.76-47.39,129.61-94.95,25.53-35.54,32.64-77.6,65.15-109.1,6.12-15.29,71.16-62.67,50.34-70.49-34.72,8.81-45.94,49.32-79.23,56.69-75.73,7.27-138.78,66.84-179.66,127.07-1.75,4.82,5.81,6.01,7.72,2.11,30.68-32.73,77.27-52.82,111.65-81.36-21.32,29.43-34.97,70.05-68.82,90.46-58.77,24.91-107.58,68.36-153.1,110.99Z"/>
        <path class="cls-2" d="M695.72,506.78c-2.12-21.37,43.07-33.66,61.68-43,26.46-11.3,23.42-45.04,46.74-61.2,98.55-67.65,58.4-93.32,133.35-155.31,55.8-46.55-121.46,57.37-134.97,70.04-57.32,44.66-14.94,78.11-94.27,114.3-20.21,17.75-19.63,45.27-38.21,64.59-17.37,22.24-39.89,40.48-56.02,63.77,8.22,10.87,68.08-45.64,81.71-53.19Z"/>
        <path class="cls-2" d="M-146.39,999.48c-17.66,18.88-36.21,39.72,5.56,18.22,44.4-19.46,82-52.25,115.2-86.75,22.67-24.91,41.22-42.3,74.25-36.47,64.3-60.11,143.51-103.51,200.2-171.63,7.59-17.04,98.25-57.78,81.75-63.67-42.33,15.63-81.12,39.67-123.93,54.96-42.44,23.14-64.17,69.64-106.58,93.79-77.43,35.09-94.37,47.26-148.29,112.84-32.55,23.05-79.31,44.31-98.16,78.7Z"/>
        <path class="cls-2" d="M51.29,1817.86c-44.26,20.71-66.85,70.05-104.7,97.52-10.98.7-113.23,99.93-92.52,99.66,68.75-72.94,44.57-8.31,78.49-24.38,26.59-47.05,64.97-83.06,86.44-131.53,3.07-15.24,38.19-31.82,32.28-41.27Z"/>
        <path class="cls-2" d="M1994.02,2016.2c-17.32,21.11-15.34,46.54-28.62,68.46-5.73,11.06-19.36,23.43-12.36,36.49,34.62,1.21,58.73-64.68,83.43-90.07,17.26-32.36,57.66-47.3,74.76-79.31,37.98-60.85,95.44-106.43,130.05-168.76,45.3-35.61,85.45-75.93,114.49-125.89,42.95-44.45,104.59-70.31,140.49-122.36,7.89-24.03,185.31-176.98,103.62-123.48-73.33,60.31-154.17,108.68-233.24,163.33-66.78,37.71-97.89,116.51-163.86,150.3-31.74,17.87-43.98,53.81-63.3,82.48-18.54,28.63-92.99,98.9-110.25,93.34,30.14-45.39,84.54-80.93,99.05-133.9,1.42-44.91,80.37-117.19,112.32-151.97,36.56-32.03,72.3-62.79,98.59-103.67,10.47-15.21,69.88-62.14,22.44-46.02-78.42,40.18-129.66,111.74-190.47,172.24-91.45,52.57-131.93,148.73-200.82,223.87-80.29,72.9-108.03,180.15-182.34,257.66-67.79,47.09-94.48,124.02-143.09,187.32-8.48,24.82-121.27,114.53-98.16,118.83,98.19-61.35,166.74-159.49,264.11-225.35,70.09-53.33,96.52-149.16,183.17-183.56Z"/>
        <path class="cls-2" d="M1236.85,1959.94c9-59.35,50.68-95.59,97.87-127.53,73.01-68.44,140.94-142.28,214.92-209.41,41.84-35.6,101.79-28.47,149.21-51.89,54.42-25.93,98.33-85.05,164.42-54.28-3.12,12.41-31.15,19.84-37.7,35.18-11.64,14.46-20.53,38.32-42.47,37.89-51.91-4.64-74.93,46.72-102.84,80.23-4.74,21.43,29.76-16.02,39.68-18.13,20.27-10.2,46-4.52,64.87-18.62,18.37-7.56,104.63-101.33,76.39-46.88-37.01,59.16-114.8,103.12-118.09,186.46-16.24,53.15-89.66,70.45-104.82,128.34,21.52-2.93,54.97-47.02,74.41-65.58,124.3-89.44,68.47-93.6,150.07-187.51,52.73-27.39,70.15-83.63,114.45-119.11,27.26-18.48,45.36-45.39,64.38-71.18,5.57-19.88,67.76-42.65,43.6-58.68-268.38,137.58-204.69-19.6-380.01,100.97-58.31,47.52-124.26,80.13-196.34,101.54-88.54,60.93-143.41,165.89-240.92,219.46-106.61,64.21-50.67,92.09-84.94,158.35-24.61,25.64-49,51.33-64.31,83.86-12.53,23.57-31.78,52.13-38.01,74.29,35.33-26.64,72.59-69.78,113.92-95.98,40.2-13.13,50.76-43.59,69.87-77.9,31.15-48.72,73.89-92.06,114.72-129.6-56.69,3.15-99.36,104.71-142.33,125.72Z"/>
        <path class="cls-2" d="M1534.22,1771.44c15.76-40.62,48.89-66.92,68.75-106.15,5.56-13.94,87.3-68.07,64.01-67.28-34.47,23.43-75.85,31.68-108.6,57.96-25.81,44.11-79.95,61.55-105.78,105.86-13.5,26.38-38.8,61.98-44.89,83.97,12.48,20.72-28.08,35.84-38.61,52.09-44.64,54.52-77.23,119.73-110.84,181.21,20.96,2.68,45.33-59.27,62.81-77.19,35.3-52.3,93.1-82.28,143.18-114.21,52.01-89.65,155.17-121.96,231.07-185.25-4.77-16.83-35.36,7.36-47.23,9.97-47.99-1.01-78.68,30.83-113.87,59.01Z"/>
        <path class="cls-2" d="M1691.46,1977.17c-21.77,59.91,37.5-42.13,83.66-47.52,26.93-19.13,28.95-56.76,66.54-68.43,9.62-4.95,24.68-7.79,27.3-19.81,15.36-49.84,44.02-108.47,87.64-138.47,41.5-12.77,52.34-48.59,60.67-85.71,22.82-37.7,66.95-67.95,94.23-95.64-38.25,10.9-64.5,52.11-92.63,79.02-26.18,31.96-66.13,48.87-98.41,74.11-40.92,26.5-46.69,78.55-84.61,107.52-28.84,27.14-67.54,43.57-95.26,71.98-10.42,20.71-10.59,43.56-36.82,54.82-23.05,4.77-117.59,105.37-94.59,113.97,29.52-2.49,62.23-53.04,82.29-45.86Z"/>
        <path class="cls-2" d="M1659,1351.41c32.61-16.93,78.85-16.96,116.34-31.43,38.27-39.11,98.76-47.39,129.61-94.95,25.53-35.54,32.64-77.6,65.15-109.1,6.12-15.29,71.16-62.67,50.34-70.49-34.72,8.81-45.94,49.32-79.23,56.69-75.73,7.27-138.78,66.84-179.66,127.07-1.75,4.82,5.81,6.01,7.72,2.11,30.68-32.73,77.27-52.82,111.65-81.36-21.32,29.43-34.97,70.05-68.82,90.46-58.77,24.91-107.58,68.36-153.1,110.99Z"/>
        <path class="cls-2" d="M1743.74,999.48c-17.66,18.88-36.21,39.72,5.56,18.22,44.4-19.46,82-52.25,115.2-86.75,22.67-24.91,41.22-42.3,74.25-36.47,64.3-60.11,143.51-103.51,200.2-171.63,7.59-17.04,98.25-57.78,81.75-63.67-42.33,15.63-81.12,39.67-123.93,54.96-42.44,23.14-64.17,69.64-106.58,93.79-77.43,35.09-94.37,47.26-148.29,112.84-32.55,23.05-79.31,44.31-98.16,78.7Z"/>
        <path class="cls-2" d="M1941.42,1817.86c-44.26,20.71-66.85,70.05-104.7,97.52-10.98.7-113.23,99.93-92.52,99.66,68.75-72.94,44.57-8.31,78.49-24.38,26.59-47.05,64.97-83.06,86.44-131.53,3.07-15.24,38.19-31.82,32.28-41.27Z"/>
        <path class="cls-2" d="M190.43,1502.75c-.07-.65.54-1.98-.5-1.89-.99.77.85,1.89.5,1.89Z"/>
        <path class="cls-2" d="M384.19,1345.88c5.27,11.36,19.33-11.28,27.79-13.08,31.82-12.52,46.22-48.46,76.96-59.1,61.23-29.26,113.47-87.65,158.67-139.08,5.65-14.78,54.8-38.16,37.96-49.75-56.45,16.43-94.79,56.8-136.43,94.03-67.49,41.8-126.23,97.9-164.94,166.98Z"/>
      </g>
    </g>
  </g>
</svg>